HIERARCHY
ROOT Hips
{
	OFFSET 0.000000 71.427986 0.000000
	CHANNELS 6 Xposition Yposition Zposition Xrotation Yrotation Zrotation
	JOINT Pelvis
	{
		OFFSET 0.000000 0.000000 0.000000
		CHANNELS 3 Xrotation Yrotation Zrotation
		JOINT LeftUpLeg
		{
			OFFSET 6.797100 -2.508499 -1.318700
			CHANNELS 3 Xrotation Yrotation Zrotation
			JOINT LeftLeg
			{
				OFFSET 0.069008 -29.241863 0.690200
				CHANNELS 3 Xrotation Yrotation Zrotation
				JOINT LeftFoot
				{
					OFFSET -0.069008 -29.568123 -0.266800
					CHANNELS 3 Xrotation Yrotation Zrotation
					JOINT LeftToeBase
					{
						OFFSET 3.145500 -8.631000 16.059900
						CHANNELS 3 Xrotation Yrotation Zrotation
						End Site
						{
							OFFSET 0.000000 18.501587 0.000000
						}
					}
				}
			}
			JOINT Left_ShortSleeve
			{
				OFFSET 0.265923 -10.480953 1.153800
				CHANNELS 3 Xrotation Yrotation Zrotation
				End Site
				{
					OFFSET 1.725763 19.823879 0.000000
				}
			}
		}
		JOINT RightUpLeg
		{
			OFFSET -6.797100 -2.508499 -1.318700
			CHANNELS 3 Xrotation Yrotation Zrotation
			JOINT RightLeg
			{
				OFFSET -0.082453 -29.241932 0.688000
				CHANNELS 3 Xrotation Yrotation Zrotation
				JOINT RightFoot
				{
					OFFSET 0.082453 -29.568058 -0.264600
					CHANNELS 3 Xrotation Yrotation Zrotation
					JOINT RightToeBase
					{
						OFFSET -3.115300 -8.682800 16.113400
						CHANNELS 3 Xrotation Yrotation Zrotation
						End Site
						{
							OFFSET 0.000000 18.567114 0.000000
						}
					}
				}
			}
			JOINT Right_ShortSleeve
			{
				OFFSET -0.265923 -10.480953 1.153800
				CHANNELS 3 Xrotation Yrotation Zrotation
				End Site
				{
					OFFSET -1.725766 19.823910 0.000000
				}
			}
		}
	}
	JOINT Spine
	{
		OFFSET 0.000000 13.368103 0.470500
		CHANNELS 3 Xrotation Yrotation Zrotation
		JOINT Spine1
		{
			OFFSET 0.147000 13.837402 0.538800
			CHANNELS 3 Xrotation Yrotation Zrotation
			JOINT Spine2
			{
				OFFSET 0.168000 16.242897 -1.435500
				CHANNELS 3 Xrotation Yrotation Zrotation
				JOINT Neck
				{
					OFFSET 0.217200 18.631500 -1.679100
					CHANNELS 3 Xrotation Yrotation Zrotation
					JOINT Head
					{
						OFFSET 0.000000 6.599396 1.385900
						CHANNELS 3 Xrotation Yrotation Zrotation
						JOINT Hat
						{
							OFFSET -0.532200 27.220596 -10.096100
							CHANNELS 3 Xrotation Yrotation Zrotation
							End Site
							{
								OFFSET 0.000000 22.029861 0.000000
							}
						}
						JOINT HairD
						{
							OFFSET -10.777400 17.437393 -1.325900
							CHANNELS 3 Xrotation Yrotation Zrotation
							JOINT HairD1
							{
								OFFSET -3.290299 -11.051193 1.062200
								CHANNELS 3 Xrotation Yrotation Zrotation
								End Site
								{
									OFFSET 0.000000 11.579437 0.000000
								}
							}
						}
						JOINT HairB
						{
							OFFSET -10.777400 17.437393 1.467900
							CHANNELS 3 Xrotation Yrotation Zrotation
							JOINT HairB1
							{
								OFFSET -1.561200 -12.956299 3.590200
								CHANNELS 3 Xrotation Yrotation Zrotation
								End Site
								{
									OFFSET 0.000000 13.534866 0.000000
								}
							}
						}
						JOINT HairA
						{
							OFFSET 9.713100 17.437393 1.467900
							CHANNELS 3 Xrotation Yrotation Zrotation
							JOINT HairA1
							{
								OFFSET 1.561200 -12.956299 3.590200
								CHANNELS 3 Xrotation Yrotation Zrotation
								End Site
								{
									OFFSET 0.000000 13.534866 0.000000
								}
							}
						}
						JOINT HairC
						{
							OFFSET 9.713100 17.437393 -1.325900
							CHANNELS 3 Xrotation Yrotation Zrotation
							JOINT HairC1
							{
								OFFSET 3.290300 -11.051193 1.062200
								CHANNELS 3 Xrotation Yrotation Zrotation
								End Site
								{
									OFFSET 0.000000 11.579437 0.000000
								}
							}
						}
					}
				}
				JOINT LeftShoulder
				{
					OFFSET 5.101800 15.108002 -2.763700
					CHANNELS 3 Xrotation Yrotation Zrotation
					JOINT LeftArm
					{
						OFFSET 9.825497 2.506317 -1.597400
						CHANNELS 3 Xrotation Yrotation Zrotation
						JOINT LeftForeArm
						{
							OFFSET 21.966244 0.000000 0.000000
							CHANNELS 3 Xrotation Yrotation Zrotation
							JOINT LeftHand
							{
								OFFSET 33.879036 0.000000 0.000000
								CHANNELS 3 Xrotation Yrotation Zrotation
								JOINT LeftHandThumb1
								{
									OFFSET 6.715286 -2.359680 3.363841
									CHANNELS 3 Xrotation Yrotation Zrotation
									JOINT LeftHandThumb2
									{
										OFFSET 2.507072 -1.447464 1.447461
										CHANNELS 3 Xrotation Yrotation Zrotation
										JOINT LeftHandThumb3
										{
											OFFSET 2.898338 -1.673355 1.673357
											CHANNELS 3 Xrotation Yrotation Zrotation
											End Site
											{
												OFFSET -0.295959 3.727692 -0.131651
											}
										}
									}
								}
								JOINT LeftHandIndex1
								{
									OFFSET 14.190811 -0.254547 3.840278
									CHANNELS 3 Xrotation Yrotation Zrotation
									JOINT LeftHandIndex2
									{
										OFFSET 3.551727 0.000000 -0.000000
										CHANNELS 3 Xrotation Yrotation Zrotation
										JOINT LeftHandIndex3
										{
											OFFSET 2.894196 0.000000 0.000000
											CHANNELS 3 Xrotation Yrotation Zrotation
											End Site
											{
												OFFSET -1.000603 2.690872 0.366626
											}
										}
									}
								}
								JOINT LeftHandMiddle1
								{
									OFFSET 13.776489 0.000000 0.000000
									CHANNELS 3 Xrotation Yrotation Zrotation
									JOINT LeftHandMiddle2
									{
										OFFSET 3.438232 0.000000 0.000000
										CHANNELS 3 Xrotation Yrotation Zrotation
										JOINT LeftHandMiddle3
										{
											OFFSET 3.691551 0.000000 0.000000
											CHANNELS 3 Xrotation Yrotation Zrotation
											End Site
											{
												OFFSET -1.082298 3.499527 0.457670
											}
										}
									}
								}
								JOINT LeftHandRing1
								{
									OFFSET 13.966164 -0.268127 -3.067488
									CHANNELS 3 Xrotation Yrotation Zrotation
									JOINT LeftHandRing2
									{
										OFFSET 3.162567 0.000000 0.000000
										CHANNELS 3 Xrotation Yrotation Zrotation
										JOINT LeftHandRing3
										{
											OFFSET 3.324348 0.000000 0.000000
											CHANNELS 3 Xrotation Yrotation Zrotation
											End Site
											{
												OFFSET -0.861900 3.184998 0.405154
											}
										}
									}
								}
								JOINT LeftHandPinky1
								{
									OFFSET 13.131393 -0.168503 -5.746925
									CHANNELS 3 Xrotation Yrotation Zrotation
									JOINT LeftHandPinky2
									{
										OFFSET 2.849182 0.000000 0.000000
										CHANNELS 3 Xrotation Yrotation Zrotation
										JOINT LeftHandPinky3
										{
											OFFSET 2.805038 0.000000 0.000000
											CHANNELS 3 Xrotation Yrotation Zrotation
											End Site
											{
												OFFSET -0.882500 2.642609 0.325652
											}
										}
									}
								}
							}
							JOINT Left_Sleeve
							{
								OFFSET 6.592125 -0.646545 0.805568
								CHANNELS 3 Xrotation Yrotation Zrotation
								End Site
								{
									OFFSET -0.000179 20.275787 -0.000000
								}
							}
						}
					}
				}
				JOINT RightShoulder
				{
					OFFSET -5.731700 15.108002 -2.763700
					CHANNELS 3 Xrotation Yrotation Zrotation
					JOINT RightArm
					{
						OFFSET -9.825497 2.506317 -1.597400
						CHANNELS 3 Xrotation Yrotation Zrotation
						JOINT RightForeArm
						{
							OFFSET -21.966242 0.000000 0.000000
							CHANNELS 3 Xrotation Yrotation Zrotation
							JOINT RightHand
							{
								OFFSET -33.879032 0.000000 0.000000
								CHANNELS 3 Xrotation Yrotation Zrotation
								JOINT RightHandThumb1
								{
									OFFSET -6.715286 -2.359680 3.363841
									CHANNELS 3 Xrotation Yrotation Zrotation
									JOINT RightHandThumb2
									{
										OFFSET -2.507072 -1.447464 1.447461
										CHANNELS 3 Xrotation Yrotation Zrotation
										JOINT RightHandThumb3
										{
											OFFSET -2.898338 -1.673355 1.673357
											CHANNELS 3 Xrotation Yrotation Zrotation
											End Site
											{
												OFFSET 0.295959 3.727692 -0.131651
											}
										}
									}
								}
								JOINT RightHandIndex1
								{
									OFFSET -14.190811 -0.254547 3.840278
									CHANNELS 3 Xrotation Yrotation Zrotation
									JOINT RightHandIndex2
									{
										OFFSET -3.551727 0.000000 -0.000000
										CHANNELS 3 Xrotation Yrotation Zrotation
										JOINT RightHandIndex3
										{
											OFFSET -2.894196 0.000000 0.000000
											CHANNELS 3 Xrotation Yrotation Zrotation
											End Site
											{
												OFFSET 1.000603 2.690872 0.366626
											}
										}
									}
								}
								JOINT RightHandMiddle1
								{
									OFFSET -13.776489 0.000000 0.000000
									CHANNELS 3 Xrotation Yrotation Zrotation
									JOINT RightHandMiddle2
									{
										OFFSET -3.438232 0.000000 0.000000
										CHANNELS 3 Xrotation Yrotation Zrotation
										JOINT RightHandMiddle3
										{
											OFFSET -3.691551 0.000000 0.000000
											CHANNELS 3 Xrotation Yrotation Zrotation
											End Site
											{
												OFFSET 1.082298 3.499527 0.457670
											}
										}
									}
								}
								JOINT RightHandRing1
								{
									OFFSET -13.966164 -0.268127 -3.067488
									CHANNELS 3 Xrotation Yrotation Zrotation
									JOINT RightHandRing2
									{
										OFFSET -3.162567 0.000000 0.000000
										CHANNELS 3 Xrotation Yrotation Zrotation
										JOINT RightHandRing3
										{
											OFFSET -3.324348 0.000000 0.000000
											CHANNELS 3 Xrotation Yrotation Zrotation
											End Site
											{
												OFFSET 0.861900 3.184998 0.405154
											}
										}
									}
								}
								JOINT RightHandPinky1
								{
									OFFSET -13.131393 -0.168503 -5.746925
									CHANNELS 3 Xrotation Yrotation Zrotation
									JOINT RightHandPinky2
									{
										OFFSET -2.849182 0.000000 0.000000
										CHANNELS 3 Xrotation Yrotation Zrotation
										JOINT RightHandPinky3
										{
											OFFSET -2.805038 0.000000 0.000000
											CHANNELS 3 Xrotation Yrotation Zrotation
											End Site
											{
												OFFSET 0.882500 2.642609 0.325652
											}
										}
									}
								}
							}
							JOINT Right_Sleeve
							{
								OFFSET -6.592125 -0.646545 0.805568
								CHANNELS 3 Xrotation Yrotation Zrotation
								End Site
								{
									OFFSET 0.000179 20.275787 -0.000000
								}
							}
						}
					}
				}
				JOINT Bind_Right_JacketString
				{
					OFFSET -3.534800 11.969597 7.200700
					CHANNELS 3 Xrotation Yrotation Zrotation
					JOINT Bind_Right_JacketString1
					{
						OFFSET -0.319900 -6.102600 2.794100
						CHANNELS 3 Xrotation Yrotation Zrotation
						End Site
						{
							OFFSET 0.000000 6.719452 0.000000
						}
					}
				}
				JOINT Bind_Left_JacketString
				{
					OFFSET 2.904800 11.969597 7.200700
					CHANNELS 3 Xrotation Yrotation Zrotation
					JOINT Bind_Left_JacketString1
					{
						OFFSET 0.364800 -5.904503 3.186800
						CHANNELS 3 Xrotation Yrotation Zrotation
						End Site
						{
							OFFSET 0.000000 6.719513 0.000000
						}
					}
				}
				JOINT HairE
				{
					OFFSET 5.915200 17.612701 -11.592200
					CHANNELS 3 Xrotation Yrotation Zrotation
					JOINT HairE1
					{
						OFFSET 0.289200 -7.171898 -1.284500
						CHANNELS 3 Xrotation Yrotation Zrotation
						End Site
						{
							OFFSET 0.000000 7.291756 0.000000
						}
					}
				}
				JOINT HairF
				{
					OFFSET -0.864800 17.612701 -11.592200
					CHANNELS 3 Xrotation Yrotation Zrotation
					JOINT HairF1
					{
						OFFSET 0.000000 -14.087097 -2.127501
						CHANNELS 3 Xrotation Yrotation Zrotation
						End Site
						{
							OFFSET 0.000000 14.246841 0.000000
						}
					}
				}
				JOINT HairG
				{
					OFFSET -8.087700 17.612701 -11.592200
					CHANNELS 3 Xrotation Yrotation Zrotation
					JOINT HairG1
					{
						OFFSET -0.293600 -6.081398 -0.910100
						CHANNELS 3 Xrotation Yrotation Zrotation
						End Site
						{
							OFFSET 0.000000 6.156120 0.000000
						}
					}
				}
			}
		}
	}
	JOINT Pouch
	{
		OFFSET 0.000000 4.394501 10.847300
		CHANNELS 3 Xrotation Yrotation Zrotation
		End Site
		{
			OFFSET 0.000000 21.880577 0.000000
		}
	}
	JOINT Bag
	{
		OFFSET -13.229000 4.813004 -0.593300
		CHANNELS 3 Xrotation Yrotation Zrotation
		End Site
		{
			OFFSET 0.000000 21.880577 0.000000
		}
	}
	JOINT OccupyGuyFacialAnim_Joint
	{
		OFFSET 1.000000 -70.206398 -1.655000
		CHANNELS 3 Xrotation Yrotation Zrotation
		End Site
		{
			OFFSET 0.000000 21.880577 0.000000
		}
	}
}
MOTION
Frames: 4
Frame Time: 0.016667
-0.045252 70.968613 1.521915 -4.056152 6.164282 -1.783228 0.000000 -0.000001 0.000000 -0.014105 11.422331 10.271583 10.019496 -6.794376 0.228278 -7.187725 0.795136 -6.693680 -0.000000 0.000000 -0.000000 0.000000 -0.000001 -0.000001 1.673511 -5.871170 1.929299 9.101309 3.391789 -0.627303 -6.517523 0.057712 0.271373 -0.000000 -0.000000 0.000000 0.000000 0.000000 -0.000000 4.903536 -0.349292 1.240014 5.814411 -0.121264 1.891506 -4.300225 -0.608023 -1.115061 1.349176 -1.122404 0.966674 4.180455 -0.441329 -1.260371 0.000000 0.000000 -0.000000 0.000000 0.000000 -0.000000 0.000000 0.000000 0.000000 0.000000 0.000000 -0.000000 -0.000001 0.000000 -0.000000 0.000000 0.000000 -0.000000 -0.000001 0.000000 -0.000000 0.000000 0.000000 -0.000000 0.000000 0.000000 -0.000000 1.687482 -7.781254 -3.494998 -0.672287 -2.004151 -76.954164 6.346018 -10.905147 1.751694 -0.215845 -0.744262 3.407819 -3.779754 8.457875 12.348760 7.439541 11.617315 -1.292659 0.000000 0.000001 -0.000001 2.384564 3.620172 -6.815693 -0.007820 0.227200 -17.103492 0.000001 0.000000 -0.000000 -1.935781 5.644692 -11.387016 0.112461 0.632660 -24.767751 -0.000002 0.000000 -0.000001 -4.873134 10.020109 -7.875486 -0.031550 0.293310 -30.086215 -0.000002 -0.000001 -0.000000 -6.437544 11.282637 -19.770956 0.029279 0.211153 -30.857647 0.000000 -0.000000 0.000003 0.000000 -0.000001 0.000000 2.069732 10.207992 4.096301 1.439768 3.704601 75.273917 15.720234 15.338361 -4.555466 -4.669816 -0.553084 -0.689267 -0.464236 -8.992520 -6.084834 7.444313 -11.614491 1.291681 -0.000006 0.000001 0.000001 2.415129 -3.647884 8.343626 -0.045910 -0.188501 18.630251 -0.000005 0.000001 -0.000001 -1.985503 -5.700683 13.541348 0.094746 -0.637369 26.924128 0.000000 -0.000001 0.000001 -4.982060 -10.062136 10.706141 -0.023918 -0.331183 32.937375 0.000005 -0.000001 -0.000002 -6.468522 -11.288235 23.243677 0.067359 -0.216412 34.333244 -0.000000 -0.000000 -0.000003 0.000003 -0.000000 0.000001 -0.000000 -0.000000 -0.000000 0.000000 -0.000000 -0.000000 -0.000000 -0.000000 -0.000000 -0.000000 -0.000000 -0.000000 -0.000000 -0.000000 -0.000000 0.000000 -0.000000 -0.000000 -0.000000 -0.000000 -0.000000 -0.000000 -0.000000 -0.000000 -0.000000 -0.000000 -0.000000 0.000000 -0.000000 -0.000000 0.000000 -0.000001 0.000000 0.000000 -0.000001 0.000000 0.000000 -0.000001 0.000000 
0.057843 70.967514 1.564472 -4.000519 6.044757 -1.793793 0.000000 0.000000 -0.000000 -0.045134 11.378191 10.167569 10.187189 -6.673670 0.242961 -7.345905 0.844719 -6.609666 -0.000000 0.000000 0.000000 -0.000000 -0.000001 -0.000000 1.655115 -5.887243 1.832918 9.080746 3.422223 -0.627061 -6.538590 0.103879 0.362218 -0.000000 -0.000000 -0.000000 0.000000 0.000000 -0.000000 4.886096 -0.327721 1.196651 5.821197 -0.106785 1.917305 -4.288225 -0.596360 -1.086638 1.375390 -1.125630 0.914276 4.107036 -0.471391 -1.182772 -0.000000 -0.000000 -0.000000 -0.000000 -0.000000 -0.000000 -0.000000 -0.000000 -0.000000 -0.000000 -0.000000 -0.000000 -0.000001 -0.000000 -0.000000 -0.000000 -0.000000 -0.000000 -0.000001 -0.000000 -0.000000 -0.000000 -0.000000 -0.000000 -0.000000 -0.000000 -0.000000 1.710091 -7.716845 -3.464170 -0.640206 -1.994683 -77.013163 6.401011 -10.925484 1.756951 -0.211700 -0.779961 3.402841 -3.770359 8.494623 12.357336 7.410612 11.555740 -1.302255 -0.000000 -0.000000 -0.000003 2.365564 3.558900 -6.752251 -0.007894 0.227185 -17.059755 0.000002 0.000000 -0.000002 -1.944291 5.590016 -11.373862 0.112397 0.632613 -24.756924 -0.000001 -0.000001 0.000002 -4.874995 9.973652 -7.908282 -0.031572 0.293458 -30.105240 -0.000000 -0.000000 0.000002 -6.427780 11.248478 -19.851955 0.029334 0.211362 -30.908771 -0.000001 -0.000001 0.000003 0.000000 -0.000001 0.000001 2.108044 10.186225 3.925885 1.704445 4.137053 75.329391 15.726318 16.016507 -5.167388 -4.943586 -0.670160 -0.596686 -0.464271 -8.992511 -6.084837 7.444340 -11.614536 1.291622 -0.000002 0.000000 0.000003 2.415113 -3.647892 8.343649 -0.045917 -0.188494 18.630243 -0.000000 0.000000 0.000000 -1.985545 -5.700727 13.541268 0.094741 -0.637342 26.924218 0.000001 -0.000001 0.000001 -4.982039 -10.062119 10.706143 -0.023998 -0.331216 32.937351 0.000002 -0.000001 0.000001 -6.468524 -11.288262 23.243622 0.067316 -0.216374 34.333288 -0.000000 0.000001 0.000001 0.000003 0.000001 0.000000 -0.000000 0.000000 0.000000 -0.000000 -0.000000 -0.000000 -0.000000 0.000000 0.000000 -0.000000 0.000000 0.000000 -0.000000 0.000000 0.000000 -0.000000 -0.000000 -0.000000 -0.000000 0.000000 0.000000 -0.000000 0.000000 0.000000 -0.000000 0.000000 0.000000 -0.000000 -0.000000 -0.000000 0.000000 0.000000 -0.000000 0.000000 0.000000 -0.000000 0.000000 0.000000 -0.000000 
0.172613 70.966644 1.627635 -3.998181 5.939282 -1.775816 0.000000 -0.000000 -0.000000 0.011488 11.392039 10.036932 10.318436 -6.599659 0.250673 -7.508389 0.875518 -6.512185 -0.000000 -0.000000 0.000000 -0.000000 -0.000001 -0.000000 1.685092 -5.937814 1.711514 9.114609 3.555680 -0.644235 -6.610236 0.104431 0.456649 0.000000 -0.000000 -0.000000 0.000000 0.000000 -0.000000 4.953278 -0.314756 1.125715 5.780769 -0.096299 1.938783 -4.313798 -0.587796 -1.059323 1.415383 -1.142936 0.891898 4.072204 -0.494248 -1.181361 0.000001 -0.000000 0.000000 0.000001 -0.000000 0.000000 0.000001 -0.000000 0.000000 0.000001 -0.000000 0.000000 0.000001 -0.000000 -0.000000 0.000001 -0.000000 0.000000 0.000001 -0.000000 -0.000000 0.000001 -0.000000 0.000000 0.000001 -0.000000 0.000000 1.725176 -7.668271 -3.419643 -0.663469 -1.883002 -77.088951 6.401419 -10.863913 1.697814 -0.197295 -0.886261 3.455019 -3.774919 8.496026 12.356104 7.405260 11.551453 -1.297605 0.000000 0.000001 -0.000000 2.389999 3.891195 -6.747933 -0.007879 0.227168 -17.044187 -0.000000 0.000001 -0.000000 -1.920718 5.826086 -11.342077 0.112328 0.632556 -24.738945 0.000003 0.000000 0.000002 -4.854177 10.148919 -7.869566 -0.031526 0.293378 -30.088083 -0.000001 0.000002 -0.000003 -6.388001 11.353686 -19.828809 0.029395 0.211321 -30.898659 -0.000000 -0.000001 0.000003 -0.000000 0.000000 0.000000 2.143770 10.163302 3.767666 1.868297 4.550498 75.382079 15.821517 16.571750 -5.763644 -5.230324 -0.788505 -0.468322 -0.464265 -8.992498 -6.084821 7.444304 -11.614517 1.291613 -0.000002 0.000000 -0.000001 2.415143 -3.647869 8.343617 -0.045885 -0.188526 18.630220 -0.000002 0.000001 0.000000 -1.985480 -5.700724 13.541298 0.094757 -0.637309 26.924187 -0.000001 0.000001 -0.000001 -4.982015 -10.062145 10.706097 -0.023973 -0.331203 32.937423 0.000001 -0.000000 -0.000001 -6.468519 -11.288274 23.243648 0.067379 -0.216356 34.333319 -0.000001 0.000003 0.000001 0.000002 -0.000000 0.000001 0.000000 0.000000 -0.000000 0.000000 0.000000 -0.000000 0.000000 0.000000 0.000000 0.000000 0.000000 0.000000 0.000000 0.000000 -0.000000 0.000000 0.000000 -0.000000 0.000000 0.000000 0.000000 0.000000 0.000000 0.000000 0.000000 0.000000 -0.000000 0.000000 0.000000 -0.000000 0.000000 -0.000000 -0.000000 0.000000 -0.000000 -0.000000 0.000000 -0.000000 -0.000000 
0.299514 70.963272 1.680859 -3.911298 5.840717 -1.784445 0.000000 0.000000 -0.000000 -0.056555 11.300019 9.899968 10.535478 -6.444365 0.279629 -7.702520 0.918280 -6.415762 0.000000 0.000000 0.000000 0.000000 0.000001 -0.000000 1.625671 -5.973473 1.588619 9.138108 3.610826 -0.646666 -6.674922 0.117890 0.566456 -0.000000 0.000000 0.000000 -0.000001 -0.000000 0.000000 4.912571 -0.305317 1.120727 5.773950 -0.091455 1.936356 -4.297130 -0.582283 -1.054468 1.394789 -1.143807 0.871364 4.049760 -0.507420 -1.134739 0.000001 0.000000 0.000000 0.000001 0.000000 0.000000 0.000001 0.000000 0.000000 0.000001 0.000000 0.000000 0.000001 -0.000000 0.000000 0.000001 0.000000 0.000000 0.000001 -0.000000 0.000000 0.000001 0.000000 0.000000 0.000001 0.000000 0.000000 1.736349 -7.615506 -3.398643 -0.683188 -1.787388 -77.118518 6.429660 -10.835446 1.658449 -0.182039 -0.982545 3.540828 -3.774033 8.519671 12.359893 7.396404 11.544278 -1.289713 -0.000000 0.000001 -0.000002 2.376641 3.922611 -6.679055 -0.007981 0.227115 -16.995701 0.000000 0.000000 -0.000000 -1.916472 5.871973 -11.333409 0.112275 0.632528 -24.733665 0.000001 0.000000 0.000002 -4.835768 10.220189 -7.914592 -0.031531 0.293558 -30.121783 0.000000 -0.000001 -0.000001 -6.320912 11.443578 -19.933967 0.029593 0.211630 -30.970455 0.000001 -0.000001 0.000003 -0.000000 0.000000 -0.000001 2.177287 10.135588 3.620688 1.959050 4.933512 75.428935 15.740926 17.064220 -6.286250 -5.433556 -0.728885 -0.390469 -0.464234 -8.992515 -6.084882 7.444309 -11.614504 1.291618 -0.000004 0.000000 0.000003 2.415388 -3.653174 8.343844 -0.045928 -0.188515 18.630212 0.000002 0.000001 0.000000 -1.985532 -5.700700 13.541234 0.094802 -0.637351 26.924233 0.000004 -0.000001 -0.000001 -4.982041 -10.062126 10.706160 -0.023989 -0.331171 32.937348 0.000001 -0.000001 0.000001 -6.468530 -11.288234 23.243699 0.067341 -0.216393 34.333285 -0.000001 0.000002 0.000002 -0.000002 0.000001 0.000000 -0.000000 -0.000000 -0.000000 0.000000 0.000000 -0.000000 -0.000000 -0.000000 -0.000000 -0.000000 -0.000000 -0.000000 -0.000000 -0.000000 -0.000000 0.000000 0.000000 -0.000000 -0.000000 -0.000000 -0.000000 -0.000000 -0.000000 -0.000000 -0.000000 -0.000000 -0.000000 0.000000 0.000000 -0.000000 0.000000 0.000000 -0.000000 0.000000 0.000000 -0.000000 0.000000 0.000000 -0.000000 
